<svg width="58" height="74" viewBox="0 0 58 74" fill="none" xmlns="http://www.w3.org/2000/svg">
<path d="M28.6824 73.9744C23.2535 73.9744 18.4393 73.0464 14.24 71.1903C10.0638 69.3111 6.76932 66.7242 4.35645 63.4297C1.94357 60.1352 0.713927 56.3419 0.667525 52.0497H17.9985C18.0681 53.6042 18.5669 54.9846 19.4949 56.1911C20.423 57.3743 21.6874 58.3023 23.2883 58.9751C24.8891 59.648 26.7104 59.9844 28.752 59.9844C30.7937 59.9844 32.5918 59.6248 34.1462 58.9055C35.7239 58.1631 36.9535 57.1539 37.8351 55.8778C38.7168 54.5786 39.146 53.0937 39.1228 51.4233C39.146 49.7528 38.6704 48.268 37.6959 46.9688C36.7215 45.6695 35.3411 44.6603 33.5546 43.941C31.7913 43.2218 29.7033 42.8622 27.2904 42.8622H20.365V30.6122H27.2904C29.4017 30.6122 31.2577 30.2642 32.8586 29.5682C34.4826 28.8722 35.7471 27.8977 36.6519 26.6449C37.5567 25.3688 37.9975 23.9072 37.9743 22.2599C37.9975 20.6591 37.6147 19.2554 36.8259 18.049C36.0603 16.8194 34.9814 15.8681 33.5894 15.1953C32.2206 14.5225 30.6313 14.1861 28.8216 14.1861C26.9192 14.1861 25.1907 14.5225 23.6363 15.1953C22.105 15.8681 20.887 16.8194 19.9822 18.049C19.0773 19.2786 18.6017 20.7055 18.5553 22.3295H2.09437C2.14077 18.0838 3.32401 14.3485 5.64409 11.1236C7.96416 7.87547 11.1195 5.33499 15.11 3.50213C19.1237 1.66927 23.6943 0.752838 28.8216 0.752838C33.9258 0.752838 38.4152 1.64607 42.2897 3.43253C46.1642 5.21898 49.1803 7.65506 51.338 10.7408C53.4957 13.8033 54.5745 17.2718 54.5745 21.1463C54.5977 25.16 53.2868 28.4661 50.642 31.0646C48.0203 33.6631 44.6446 35.264 40.5148 35.8672V36.424C46.0366 37.0736 50.2011 38.8601 53.0084 41.7834C55.8389 44.7067 57.2426 48.3608 57.2194 52.7457C57.2194 56.8755 56.0013 60.5412 53.5653 63.7429C51.1524 66.9214 47.7883 69.4271 43.4729 71.2599C39.1808 73.0696 34.2506 73.9744 28.6824 73.9744Z" fill="url(#paint0_linear_1_2323)"/>
<defs>
<linearGradient id="paint0_linear_1_2323" x1="29" y1="-22" x2="134.86" y2="57.965" gradientUnits="userSpaceOnUse">
<stop stop-color="#8BD7DC"/>
<stop offset="1" stop-color="#1246A9"/>
</linearGradient>
</defs>
</svg>
